<svg width="126" height="117" viewBox="0 0 126 117" fill="none" xmlns="http://www.w3.org/2000/svg">
<path fill-rule="evenodd" clip-rule="evenodd" d="M70.633 12.4042C67.558 20.042 63.6697 36.8651 72.716 43.0547C84.024 50.7917 93.844 42.7571 99.2004 29.9613C104.557 17.1655 102.771 3.17931 93.844 0.798688C84.9167 -1.58193 76.8821 1.09627 70.633 12.4042ZM91.4634 61.8021C88.8447 53.5545 95.5303 42.8915 99.2004 38.591C102.275 35.5161 110.389 30.0208 118.245 32.6395C128.065 35.9128 128.958 50.4941 118.245 64.4803C107.533 78.4665 94.7368 72.1116 91.4634 61.8021ZM42.6607 61.8021C47.898 48.7087 58.1347 47.6176 62.5984 48.7087C66.7645 48.7087 76.3465 50.6727 81.3458 58.5287C83.4249 61.7959 85.6687 64.4373 87.88 66.5952C87.5274 66.574 87.16 66.5634 86.7778 66.5634C82.3322 66.5634 78.6515 68.0143 75.7356 70.9161C72.8675 73.7703 70.7642 77.1716 69.4258 81.12C68.1351 85.0683 67.4898 88.6837 67.4898 91.9661C67.4898 92.5423 67.5112 93.0962 67.554 93.6278C66.9112 94.9475 66.2006 96.0348 65.4222 96.8896C64.036 98.4119 62.1956 99.5536 59.9011 100.315L66.9997 67.2056H56.6745L55.8858 70.9161V70.4879C55.8858 69.3938 55.4077 68.5137 54.4517 67.8478C53.4957 67.1818 52.0377 66.8488 50.0779 66.8488C46.2059 66.8488 42.8598 68.2045 40.0395 70.9161C37.267 73.58 35.1637 76.8624 33.7297 80.7632C32.3434 84.6164 31.6503 88.3031 31.6503 91.8233C31.6503 95.7717 32.5585 98.6735 34.375 100.529C36.1915 102.384 38.4621 103.312 41.1867 103.312C44.4851 103.312 47.3532 102.003 49.7911 99.3871L48.9306 103.169C45.5367 104.263 42.7403 105.619 40.5414 107.236C38.3425 108.901 37.2431 111.089 37.2431 113.801C37.2431 114.067 37.2539 114.326 37.2756 114.577C33.2976 114.044 29.3268 112.781 25.6987 110.307C12.6053 101.38 14.3908 79.0616 25.6987 74.8955C34.7451 71.5627 40.776 64.7779 42.6607 61.8021ZM44.6868 114.837C43.9394 114.874 43.1844 114.896 42.4241 114.898C42.2003 114.784 42.003 114.632 41.8321 114.443C41.4019 113.967 41.1867 113.42 41.1867 112.802C41.1867 110.471 43.529 108.449 48.2136 106.737L47.7834 108.806C47.3532 110.852 46.7556 112.421 45.9908 113.516C45.5636 114.127 45.129 114.567 44.6868 114.837ZM56.8093 113.178C59.1953 112.74 61.1858 112.39 62.5984 112.39C66.1008 112.39 69.2294 113.419 72.2984 114.427C74.7051 115.218 77.0752 115.997 79.5603 116.259C85.2143 116.854 103.069 115.961 108.425 101.082C113.782 86.2035 103.069 77.2761 99.2004 74.8955C98.9031 74.7125 98.5829 74.519 98.2423 74.3132L98.239 74.3112L98.2375 74.3103L98.232 74.3069L98.2308 74.3063C97.2044 73.686 95.9934 72.9542 94.6639 72.0629C94.7125 72.4272 94.7368 72.8061 94.7368 73.1995C94.7368 74.912 94.3544 76.1964 93.5895 77.0527C92.8725 77.9089 91.9882 78.3371 90.9366 78.3371C90.0283 78.3371 89.1918 78.0517 88.427 77.4808C89.0006 75.9585 89.2874 74.5552 89.2874 73.2708C89.2874 71.3204 88.6421 70.3452 87.3514 70.3452C85.9174 70.3452 84.4833 71.5345 83.0493 73.913C81.6152 76.244 80.4202 79.0506 79.4641 82.333C78.5559 85.5678 78.1018 88.3745 78.1018 90.753C78.1018 94.7014 79.5358 96.6756 82.4039 96.6756C83.6946 96.6756 85.1286 96.295 86.7061 95.5339C88.3314 94.7252 89.7654 93.7975 91.0082 92.751C89.7176 99.7914 85.5828 103.312 78.6037 103.312C75.1142 103.312 72.3895 102.408 70.4296 100.6C69.5697 99.7861 68.8984 98.7752 68.4158 97.5673C67.8821 98.2814 67.3145 98.9118 66.7128 99.4584C64.514 101.409 62.0283 102.741 59.2558 103.454L58.1802 108.592C57.8211 110.326 57.3641 111.854 56.8093 113.178ZM34.9237 35.3177C25.1631 16.7489 37.4035 4.56801 44.7437 0.798688C47.9179 0.0051472 55.9326 0.798687 62.5984 10.3212C69.2641 19.8437 65.3758 33.1355 62.5984 38.591C57.4404 45.2369 44.6842 53.8865 34.9237 35.3177ZM7.54651 29.9613C2.58688 34.0282 -4.95175 45.4353 4.57073 58.5287C16.4738 74.8955 25.1036 71.371 34.9237 64.4803C44.3784 57.8459 33.6962 41.9187 29.7012 35.9624C29.5469 35.7322 29.4025 35.517 29.2697 35.3177C25.6987 29.9613 19.152 24.6049 7.54651 29.9613ZM49.2174 94.8917C48.0702 95.8906 46.9468 96.3901 45.8474 96.3901C44.8436 96.3901 43.9831 96.0571 43.2661 95.3911C42.5969 94.7252 42.2623 93.2029 42.2623 90.8244C42.2623 88.4458 42.6925 85.7105 43.5529 82.6184C44.4134 79.4788 45.6084 76.8148 47.1381 74.6266C48.6677 72.3908 50.3886 71.2728 52.3006 71.2728C53.3045 71.2728 54.0454 71.5821 54.5234 72.2005C55.0014 72.7713 55.2404 73.3422 55.2404 73.913L51.5836 90.8244C51.1534 92.5369 50.3647 93.8927 49.2174 94.8917Z" fill="black"/>
</svg>
